<svg width="20" height="20" viewBox="0 0 20 20" fill="none" xmlns="http://www.w3.org/2000/svg">
<path d="M7.5 18.3333L7.5016 14.998C7.50197 14.2225 7.50215 13.8347 7.62885 13.5289C7.79812 13.1202 8.12288 12.7956 8.53158 12.6266C8.83758 12.5 9.22533 12.5 10.0008 12.5C10.7766 12.5 11.1645 12.5 11.4706 12.6267C11.8794 12.7958 12.2042 13.1206 12.3733 13.5294C12.5 13.8355 12.5 14.2234 12.5 14.9992V18.3333" stroke="#EFEFEF" stroke-opacity="0.7" stroke-width="1.2"/>
<path d="M5.90707 3.96865L5.07372 4.61911C3.80984 5.60563 3.1779 6.0989 2.83895 6.7944C2.5 7.48989 2.5 8.29333 2.5 9.90021V11.6429C2.5 14.7968 2.5 16.3737 3.47631 17.3535C4.45262 18.3333 6.02397 18.3333 9.16667 18.3333H10.8333C13.976 18.3333 15.5474 18.3333 16.5237 17.3535C17.5 16.3737 17.5 14.7968 17.5 11.6429V9.90021C17.5 8.29333 17.5 7.48989 17.1611 6.7944C16.8221 6.0989 16.1902 5.60563 14.9263 4.61911L14.0929 3.96865C12.1268 2.43397 11.1437 1.66663 10 1.66663C8.85633 1.66663 7.87322 2.43397 5.90707 3.96865Z" stroke="#EFEFEF" stroke-opacity="0.7" stroke-width="1.2" stroke-linejoin="round"/>
</svg>
