<svg width="20" height="20" viewBox="0 0 20 20" fill="none" xmlns="http://www.w3.org/2000/svg">
<path d="M2.10819 12.308C1.93098 13.4696 2.72325 14.276 3.69329 14.6778C7.41226 16.2185 12.5876 16.2185 16.3065 14.6778C17.2766 14.276 18.0688 13.4696 17.8917 12.308C17.7828 11.594 17.2443 10.9995 16.8453 10.419C16.3227 9.64938 16.2708 8.80979 16.2707 7.91663C16.2707 4.46484 13.4632 1.66663 9.99992 1.66663C6.53669 1.66663 3.72919 4.46484 3.72919 7.91663C3.72911 8.80979 3.67719 9.64938 3.15459 10.419C2.75562 10.9995 2.21709 11.594 2.10819 12.308Z" stroke="#EFEFEF" stroke-opacity="0.7" stroke-width="1.2" stroke-linecap="round" stroke-linejoin="round"/>
<path d="M6.66675 15.8334C7.04882 17.271 8.39633 18.3334 10.0001 18.3334C11.6038 18.3334 12.9513 17.271 13.3334 15.8334" stroke="#EFEFEF" stroke-opacity="0.7" stroke-width="1.2" stroke-linecap="round" stroke-linejoin="round"/>
</svg>
